# Blender v2.90.1 OBJ File: 'MapBuildings.blend'
# www.blender.org
mtllib Quiz_Tile.mtl
o Cylinder.002_Cylinder.007
v 4.985125 0.226470 -9.323348
v 4.985125 0.370712 -9.273615
v 5.443597 0.226470 -9.174381
v 5.414364 0.370712 -9.134147
v 5.726949 0.226470 -8.784382
v 5.679649 0.370712 -8.769013
v 5.726949 0.226470 -8.302315
v 5.679649 0.370712 -8.317683
v 5.443597 0.226470 -7.912315
v 5.414364 0.370712 -7.952550
v 4.985125 0.226470 -7.763349
v 4.985125 0.370712 -7.813082
v 4.526652 0.226470 -7.912315
v 4.555885 0.370712 -7.952550
v 4.243300 0.226470 -8.302315
v 4.290600 0.370712 -8.317683
v 4.243300 0.226470 -8.784382
v 4.290600 0.370712 -8.769013
v 4.526652 0.226470 -9.174381
v 4.555885 0.370712 -9.134147
v 5.443597 0.370712 -9.174381
v 4.985125 0.370712 -9.323348
v 5.726949 0.370712 -8.784382
v 5.726949 0.370712 -8.302315
v 5.443597 0.370712 -7.912315
v 4.985125 0.370712 -7.763349
v 4.526652 0.370712 -7.912315
v 4.243300 0.370712 -8.302315
v 4.243300 0.370712 -8.784382
v 4.526652 0.370712 -9.174381
v 5.414364 0.333636 -9.134147
v 4.985125 0.333636 -9.273615
v 5.679649 0.333636 -8.769013
v 5.679649 0.333636 -8.317683
v 5.414364 0.333636 -7.952550
v 4.985125 0.333636 -7.813082
v 4.555885 0.333636 -7.952550
v 4.290600 0.333636 -8.317683
v 4.290600 0.333636 -8.769013
v 4.555885 0.333636 -9.134147
vt 1.000000 0.500000
vt 1.000000 1.000000
vt 0.900000 1.000000
vt 0.900000 0.500000
vt 0.800000 1.000000
vt 0.800000 0.500000
vt 0.700000 1.000000
vt 0.700000 0.500000
vt 0.600000 1.000000
vt 0.600000 0.500000
vt 0.500000 1.000000
vt 0.500000 0.500000
vt 0.400000 1.000000
vt 0.400000 0.500000
vt 0.300000 1.000000
vt 0.300000 0.500000
vt 0.200000 1.000000
vt 0.200000 0.500000
vt 0.463700 0.319435
vt 0.382074 0.431784
vt 0.382074 0.431784
vt 0.463700 0.319435
vt 0.100000 1.000000
vt 0.100000 0.500000
vt -0.000000 1.000000
vt -0.000000 0.500000
vt 0.750000 0.490000
vt 0.891068 0.444164
vt 0.978254 0.324164
vt 0.978254 0.175836
vt 0.891068 0.055836
vt 0.750000 0.010000
vt 0.608932 0.055836
vt 0.521746 0.175836
vt 0.521746 0.324164
vt 0.608932 0.444164
vt 0.250000 0.474697
vt 0.391068 0.444164
vt 0.250000 0.490000
vt 0.478254 0.324164
vt 0.463700 0.180565
vt 0.478254 0.175836
vt 0.382074 0.068216
vt 0.391068 0.055836
vt 0.250000 0.025303
vt 0.250000 0.010000
vt 0.117926 0.068216
vt 0.108932 0.055836
vt 0.036300 0.180565
vt 0.021746 0.175836
vt 0.036300 0.319435
vt 0.021746 0.324164
vt 0.117926 0.431784
vt 0.108932 0.444164
vt 0.036300 0.319435
vt 0.117926 0.431784
vt 0.250000 0.025303
vt 0.117926 0.068216
vt 0.463700 0.180565
vt 0.250000 0.474697
vt 0.036300 0.180565
vt 0.382074 0.068216
vn 0.3090 0.0000 -0.9511
vn 0.8090 0.0000 -0.5878
vn 1.0000 0.0000 0.0000
vn 0.8090 0.0000 0.5878
vn 0.3090 0.0000 0.9511
vn -0.3090 0.0000 0.9511
vn -0.8090 0.0000 0.5878
vn -1.0000 0.0000 0.0000
vn -0.8090 0.0000 -0.5878
vn -0.3090 0.0000 -0.9511
vn 0.0000 -1.0000 -0.0000
vn 0.0000 1.0000 0.0000
usemtl Door
s off
f 1/1/1 22/2/1 21/3/1 3/4/1
f 3/4/2 21/3/2 23/5/2 5/6/2
f 5/6/3 23/5/3 24/7/3 7/8/3
f 7/8/4 24/7/4 25/9/4 9/10/4
f 9/10/5 25/9/5 26/11/5 11/12/5
f 11/12/6 26/11/6 27/13/6 13/14/6
f 13/14/7 27/13/7 28/15/7 15/16/7
f 15/16/8 28/15/8 29/17/8 17/18/8
f 6/19/7 4/20/7 31/21/7 33/22/7
f 17/18/9 29/17/9 30/23/9 19/24/9
f 19/24/10 30/23/10 22/25/10 1/26/10
f 1/27/11 3/28/11 5/29/11 7/30/11 9/31/11 11/32/11 13/33/11 15/34/11 17/35/11 19/36/11
f 2/37/12 4/20/12 21/38/12 22/39/12
f 4/20/12 6/19/12 23/40/12 21/38/12
f 6/19/12 8/41/12 24/42/12 23/40/12
f 8/41/12 10/43/12 25/44/12 24/42/12
f 10/43/12 12/45/12 26/46/12 25/44/12
f 12/45/12 14/47/12 27/48/12 26/46/12
f 14/47/12 16/49/12 28/50/12 27/48/12
f 16/49/12 18/51/12 29/52/12 28/50/12
f 18/51/12 20/53/12 30/54/12 29/52/12
f 20/53/12 2/37/12 22/39/12 30/54/12
f 20/53/4 18/51/4 39/55/4 40/56/4
f 14/47/1 12/45/1 36/57/1 37/58/1
f 8/41/8 6/19/8 33/22/8 34/59/8
f 2/37/5 20/53/5 40/56/5 32/60/5
f 16/49/2 14/47/2 37/58/2 38/61/2
f 10/43/9 8/41/9 34/59/9 35/62/9
f 4/20/6 2/37/6 32/60/6 31/21/6
f 18/51/3 16/49/3 38/61/3 39/55/3
f 12/45/10 10/43/10 35/62/10 36/57/10
usemtl Material.002
f 39/55/12 37/58/12 35/62/12
f 33/22/12 31/21/12 32/60/12
f 32/60/12 40/56/12 39/55/12
f 39/55/12 38/61/12 37/58/12
f 37/58/12 36/57/12 35/62/12
f 35/62/12 34/59/12 33/22/12
f 32/60/12 39/55/12 35/62/12 33/22/12
